<region> lovel=1 hivel=5 amp_velcurve_5=1 sample=../samples/toms/tm12bop/stx/snare_off/rms/tm12bop_stxl_rms_001.wav
<region> lovel=6 hivel=10 amp_velcurve_10=1 sample=../samples/toms/tm12bop/stx/snare_off/rms/tm12bop_stxl_rms_002.wav
<region> lovel=11 hivel=15 amp_velcurve_15=1 sample=../samples/toms/tm12bop/stx/snare_off/rms/tm12bop_stxl_rms_003.wav
<region> lovel=16 hivel=20 amp_velcurve_20=1 sample=../samples/toms/tm12bop/stx/snare_off/rms/tm12bop_stxl_rms_004.wav
<region> lovel=21 hivel=25 amp_velcurve_25=1 sample=../samples/toms/tm12bop/stx/snare_off/rms/tm12bop_stxl_rms_005.wav
<region> lovel=26 hivel=31 amp_velcurve_31=1 sample=../samples/toms/tm12bop/stx/snare_off/rms/tm12bop_stxl_rms_006.wav
<region> lovel=32 hivel=37 amp_velcurve_37=1 sample=../samples/toms/tm12bop/stx/snare_off/rms/tm12bop_stxl_rms_007.wav
<region> lovel=38 hivel=43 amp_velcurve_43=1 sample=../samples/toms/tm12bop/stx/snare_off/rms/tm12bop_stxl_rms_008.wav
<region> lovel=44 hivel=49 amp_velcurve_49=1 sample=../samples/toms/tm12bop/stx/snare_off/rms/tm12bop_stxl_rms_009.wav
<region> lovel=50 hivel=55 amp_velcurve_55=1 sample=../samples/toms/tm12bop/stx/snare_off/rms/tm12bop_stxl_rms_010.wav
<region> lovel=56 hivel=61 amp_velcurve_61=1 sample=../samples/toms/tm12bop/stx/snare_off/rms/tm12bop_stxl_rms_011.wav
<region> lovel=62 hivel=67 amp_velcurve_67=1 sample=../samples/toms/tm12bop/stx/snare_off/rms/tm12bop_stxl_rms_012.wav
<region> lovel=68 hivel=73 amp_velcurve_73=1 sample=../samples/toms/tm12bop/stx/snare_off/rms/tm12bop_stxl_rms_013.wav
<region> lovel=74 hivel=79 amp_velcurve_79=1 sample=../samples/toms/tm12bop/stx/snare_off/rms/tm12bop_stxl_rms_014.wav
<region> lovel=80 hivel=85 amp_velcurve_85=1 sample=../samples/toms/tm12bop/stx/snare_off/rms/tm12bop_stxl_rms_015.wav
<region> lovel=86 hivel=91 amp_velcurve_91=1 sample=../samples/toms/tm12bop/stx/snare_off/rms/tm12bop_stxl_rms_016.wav
<region> lovel=92 hivel=97 amp_velcurve_97=1 sample=../samples/toms/tm12bop/stx/snare_off/rms/tm12bop_stxl_rms_017.wav
<region> lovel=98 hivel=103 amp_velcurve_103=1 sample=../samples/toms/tm12bop/stx/snare_off/rms/tm12bop_stxl_rms_018.wav
<region> lovel=104 hivel=109 amp_velcurve_109=1 sample=../samples/toms/tm12bop/stx/snare_off/rms/tm12bop_stxl_rms_019.wav
<region> lovel=110 hivel=115 amp_velcurve_115=1 sample=../samples/toms/tm12bop/stx/snare_off/rms/tm12bop_stxl_rms_020.wav
<region> lovel=116 hivel=121 amp_velcurve_121=1 sample=../samples/toms/tm12bop/stx/snare_off/rms/tm12bop_stxl_rms_021.wav
<region> lovel=122 hivel=127 amp_velcurve_127=1 sample=../samples/toms/tm12bop/stx/snare_off/rms/tm12bop_stxl_rms_022.wav
